<?xml version="1.0" encoding="UTF-8"?>
<svg xmlns="http://www.w3.org/2000/svg" xmlns:xlink="http://www.w3.org/1999/xlink" width="166pt" height="106pt" viewBox="0 0 166 106" version="1.1">
<defs>
<clipPath id="clip1">
  <path d="M 0 0.0351562 L 165.519531 0.0351562 L 165.519531 106 L 0 106 Z M 0 0.0351562 "/>
</clipPath>
</defs>
<g id="surface1">
<g clip-path="url(#clip1)" clip-rule="nonzero">
<path style=" stroke:none;fill-rule:nonzero;fill:rgb(13.729858%,12.159729%,12.548828%);fill-opacity:1;" d="M 150.699219 0.0351562 L 14.824219 0.0351562 C 14.257812 0.0351562 13.691406 0.0351562 13.125 0.0390625 C 12.648438 0.0429688 12.171875 0.046875 11.695312 0.0585938 C 10.65625 0.0898438 9.609375 0.148438 8.582031 0.335938 C 7.539062 0.519531 6.570312 0.828125 5.625 1.308594 C 4.695312 1.78125 3.839844 2.402344 3.105469 3.140625 C 2.363281 3.878906 1.746094 4.726562 1.273438 5.660156 C 0.792969 6.605469 0.484375 7.578125 0.296875 8.617188 C 0.113281 9.644531 0.0507812 10.695312 0.0234375 11.730469 C 0.0117188 12.207031 0.00390625 12.683594 0.00390625 13.160156 C 0 13.726562 0 14.292969 0 14.859375 L 0 91.175781 C 0 91.742188 0 92.308594 0.00390625 92.875 C 0.00390625 93.351562 0.0117188 93.828125 0.0234375 94.304688 C 0.0507812 95.34375 0.113281 96.390625 0.296875 97.414062 C 0.484375 98.460938 0.792969 99.429688 1.273438 100.375 C 1.746094 101.308594 2.363281 102.15625 3.105469 102.894531 C 3.839844 103.636719 4.695312 104.253906 5.625 104.726562 C 6.570312 105.207031 7.539062 105.515625 8.582031 105.703125 C 9.609375 105.886719 10.65625 105.949219 11.695312 105.976562 C 12.171875 105.988281 12.648438 105.992188 13.125 105.996094 C 13.691406 106 14.257812 106 14.824219 106 L 150.699219 106 C 151.261719 106 151.828125 106 152.394531 105.996094 C 152.871094 105.992188 153.347656 105.988281 153.824219 105.976562 C 154.863281 105.949219 155.910156 105.886719 156.9375 105.703125 C 157.980469 105.515625 158.949219 105.207031 159.898438 104.726562 C 160.828125 104.253906 161.675781 103.636719 162.417969 102.894531 C 163.152344 102.15625 163.773438 101.308594 164.246094 100.375 C 164.730469 99.429688 165.035156 98.460938 165.222656 97.414062 C 165.40625 96.390625 165.46875 95.34375 165.496094 94.304688 C 165.507812 93.828125 165.515625 93.351562 165.515625 92.875 C 165.519531 92.308594 165.519531 91.742188 165.519531 91.175781 L 165.519531 14.859375 C 165.519531 14.292969 165.519531 13.726562 165.515625 13.160156 C 165.515625 12.683594 165.507812 12.207031 165.496094 11.730469 C 165.46875 10.695312 165.40625 9.644531 165.222656 8.617188 C 165.035156 7.578125 164.730469 6.605469 164.246094 5.660156 C 163.773438 4.726562 163.152344 3.878906 162.417969 3.140625 C 161.675781 2.402344 160.828125 1.78125 159.898438 1.308594 C 158.949219 0.828125 157.980469 0.519531 156.9375 0.335938 C 155.910156 0.148438 154.863281 0.0898438 153.824219 0.0585938 C 153.347656 0.046875 152.871094 0.0429688 152.394531 0.0390625 C 151.828125 0.0351562 151.261719 0.0351562 150.699219 0.0351562 "/>
</g>
<path style=" stroke:none;fill-rule:nonzero;fill:rgb(100%,100%,100%);fill-opacity:1;" d="M 150.699219 3.566406 L 152.371094 3.570312 C 152.820312 3.574219 153.273438 3.578125 153.730469 3.589844 C 154.523438 3.613281 155.449219 3.65625 156.3125 3.808594 C 157.0625 3.945312 157.691406 4.152344 158.296875 4.457031 C 158.894531 4.761719 159.441406 5.160156 159.917969 5.636719 C 160.394531 6.113281 160.792969 6.660156 161.101562 7.265625 C 161.40625 7.863281 161.609375 8.492188 161.746094 9.246094 C 161.898438 10.101562 161.941406 11.03125 161.964844 11.828125 C 161.976562 12.277344 161.984375 12.726562 161.984375 13.1875 C 161.988281 13.746094 161.988281 14.300781 161.988281 14.859375 L 161.988281 91.175781 C 161.988281 91.734375 161.988281 92.289062 161.984375 92.859375 C 161.984375 93.308594 161.976562 93.757812 161.964844 94.210938 C 161.941406 95.003906 161.898438 95.933594 161.742188 96.796875 C 161.609375 97.542969 161.40625 98.171875 161.097656 98.773438 C 160.792969 99.375 160.394531 99.921875 159.917969 100.398438 C 159.4375 100.878906 158.894531 101.273438 158.289062 101.582031 C 157.691406 101.886719 157.0625 102.09375 156.320312 102.226562 C 155.4375 102.382812 154.472656 102.425781 153.746094 102.445312 C 153.289062 102.457031 152.835938 102.460938 152.367188 102.464844 C 151.8125 102.46875 151.253906 102.46875 150.699219 102.46875 L 14.824219 102.46875 C 14.816406 102.46875 14.808594 102.46875 14.800781 102.46875 C 14.25 102.46875 13.703125 102.46875 13.140625 102.464844 C 12.683594 102.460938 12.230469 102.457031 11.789062 102.445312 C 11.046875 102.425781 10.082031 102.382812 9.207031 102.226562 C 8.457031 102.09375 7.828125 101.886719 7.222656 101.574219 C 6.625 101.273438 6.078125 100.875 5.597656 100.394531 C 5.121094 99.921875 4.726562 99.375 4.421875 98.773438 C 4.113281 98.171875 3.910156 97.542969 3.773438 96.789062 C 3.617188 95.925781 3.574219 95 3.554688 94.210938 C 3.542969 93.757812 3.539062 93.304688 3.535156 92.855469 L 3.53125 91.527344 L 3.53125 14.507812 L 3.535156 13.183594 C 3.539062 12.730469 3.542969 12.277344 3.554688 11.828125 C 3.574219 11.035156 3.617188 10.109375 3.777344 9.238281 C 3.910156 8.492188 4.113281 7.863281 4.421875 7.257812 C 4.726562 6.660156 5.121094 6.113281 5.601562 5.636719 C 6.078125 5.160156 6.625 4.761719 7.226562 4.457031 C 7.828125 4.148438 8.457031 3.945312 9.207031 3.808594 C 10.070312 3.65625 10.996094 3.613281 11.792969 3.589844 C 12.242188 3.578125 12.695312 3.574219 13.144531 3.570312 L 14.824219 3.566406 L 150.699219 3.566406 "/>
<path style=" stroke:none;fill-rule:nonzero;fill:rgb(13.729858%,12.159729%,12.548828%);fill-opacity:1;" d="M 43.507812 35.804688 C 44.910156 34.050781 45.863281 31.691406 45.613281 29.285156 C 43.558594 29.386719 41.050781 30.640625 39.601562 32.398438 C 38.296875 33.902344 37.144531 36.355469 37.445312 38.664062 C 39.75 38.863281 42.054688 37.511719 43.507812 35.804688 "/>
<path style=" stroke:none;fill-rule:nonzero;fill:rgb(13.729858%,12.159729%,12.548828%);fill-opacity:1;" d="M 45.585938 39.113281 C 42.238281 38.914062 39.390625 41.015625 37.792969 41.015625 C 36.191406 41.015625 33.742188 39.214844 31.09375 39.261719 C 27.648438 39.3125 24.449219 41.261719 22.699219 44.363281 C 19.101562 50.5625 21.75 59.761719 25.25 64.8125 C 26.949219 67.3125 28.996094 70.0625 31.695312 69.964844 C 34.242188 69.863281 35.242188 68.3125 38.339844 68.3125 C 41.4375 68.3125 42.339844 69.964844 45.035156 69.914062 C 47.835938 69.863281 49.585938 67.414062 51.285156 64.914062 C 53.234375 62.066406 54.03125 59.316406 54.082031 59.164062 C 54.03125 59.113281 48.683594 57.0625 48.636719 50.914062 C 48.585938 45.761719 52.832031 43.3125 53.03125 43.160156 C 50.632812 39.613281 46.886719 39.214844 45.585938 39.113281 "/>
<path style=" stroke:none;fill-rule:nonzero;fill:rgb(13.729858%,12.159729%,12.548828%);fill-opacity:1;" d="M 70.734375 51.953125 L 77.414062 51.953125 C 82.480469 51.953125 85.367188 49.222656 85.367188 44.492188 C 85.367188 39.761719 82.480469 37.058594 77.441406 37.058594 L 70.734375 37.058594 Z M 78.972656 32.144531 C 86.25 32.144531 91.320312 37.160156 91.320312 44.464844 C 91.320312 51.796875 86.148438 56.839844 78.789062 56.839844 L 70.734375 56.839844 L 70.734375 69.652344 L 64.910156 69.652344 L 64.910156 32.144531 L 78.972656 32.144531 "/>
<path style=" stroke:none;fill-rule:nonzero;fill:rgb(13.729858%,12.159729%,12.548828%);fill-opacity:1;" d="M 110.4375 59.464844 L 110.4375 57.359375 L 103.96875 57.773438 C 100.328125 58.007812 98.429688 59.359375 98.429688 61.726562 C 98.429688 64.011719 100.40625 65.496094 103.5 65.496094 C 107.449219 65.496094 110.4375 62.972656 110.4375 59.464844 Z M 92.765625 61.882812 C 92.765625 57.074219 96.429688 54.316406 103.1875 53.902344 L 110.4375 53.460938 L 110.4375 51.378906 C 110.4375 48.339844 108.4375 46.675781 104.878906 46.675781 C 101.9375 46.675781 99.808594 48.183594 99.367188 50.496094 L 94.113281 50.496094 C 94.273438 45.636719 98.847656 42.101562 105.03125 42.101562 C 111.6875 42.101562 116.027344 45.585938 116.027344 50.992188 L 116.027344 69.652344 L 110.648438 69.652344 L 110.648438 65.15625 L 110.515625 65.15625 C 108.984375 68.09375 105.605469 69.941406 101.9375 69.941406 C 96.53125 69.941406 92.765625 66.714844 92.765625 61.882812 "/>
<path style=" stroke:none;fill-rule:nonzero;fill:rgb(13.729858%,12.159729%,12.548828%);fill-opacity:1;" d="M 120.976562 79.6875 L 120.976562 75.191406 C 121.339844 75.242188 122.222656 75.292969 122.691406 75.292969 C 125.261719 75.292969 126.71875 74.203125 127.601562 71.394531 L 128.121094 69.730469 L 118.269531 42.4375 L 124.351562 42.4375 L 131.214844 64.585938 L 131.347656 64.585938 L 138.207031 42.4375 L 144.136719 42.4375 L 133.917969 71.109375 C 131.578125 77.683594 128.902344 79.84375 123.234375 79.84375 C 122.792969 79.84375 121.363281 79.792969 120.976562 79.6875 "/>
</g>
</svg>
